<svg id="Layer_1" viewBox="0 0 176 176" xmlns="http://www.w3.org/2000/svg"><style>.st0{fill:#B2D9F8;} .st1{fill:#4696E6;} .st2{fill:#64B4FF;} .st5{fill:#FFFFFF;} .st8{fill-rule:evenodd;clip-rule:evenodd;fill:#FFFFFF;} .st9{opacity:0.5;fill:rgba(0,0,0,0.2);} .st10{fill:none;} .st12{font-size:12.5373px;}</style><path class="st2" d="M114.9 12.4H53c-5.7 0-10.3 4.5-10.3 10v130.2c0 5.5 4.6 10 10.3 10h61.9c5.7 0 10.3-4.5 10.3-10V22.4c.1-5.6-4.6-10-10.3-10z"></path><path class="st0" d="M119.1 140.7c0 1.6-1.3 2.9-3 2.9H51.9c-1.7 0-3-1.3-3-2.9V29.3c0-1.6 1.3-2.9 3-2.9H116c1.7 0 3 1.3 3 2.9v111.4z"></path><path class="st8" d="M55.8 152.4c0-.4.3-.7.7-.7h52.7c.4 0 .7.3.7.7v1.5c0 .4-.3.8-.7.8H56.4c-.4 0-.7-.3-.7-.8v-1.5z"></path><path class="st9" d="M119.3 128.4l-64.3-28h64.3z"></path><path class="st1" d="M143.7 100.2h-111c-2.8 0-5-2.2-5-5V66.1c0-2.8 2.2-5 5-5h111c2.8 0 5 2.2 5 5v29.1c0 2.7-2.2 5-5 5z"></path><path class="st10" d="M63.1 76h86.1v20.3H63.1z"></path><text class="st5 st11 st12" transform="translate(63.144 85.147)">Quero visitar</text><path class="st5" d="M38.8 75.3h5.9v3.8h-5.9zM38.8 70.6h19.5v3.8H38.8zM38.8 80.1h5.9v3.8h-5.9zM38.8 84.8h5.9v3.8h-5.9zM45.6 75.3h5.9v3.8h-5.9zM45.6 80.1h5.9v3.8h-5.9zM45.6 84.8h5.9v3.8h-5.9zM52.4 75.3h5.9v3.8h-5.9zM52.4 80.1h5.9v3.8h-5.9zM52.4 84.8h5.9v3.8h-5.9z"></path></svg>
