
<svg xmlns="http://www.w3.org/2000/svg" viewBox="0 0 190 50" version="1.1" xml:space="preserve" x="0" y="0" width="190" height="50" background-color="#ffffff00"><path d="M15 13.8L47 13.8C47.66 13.8 48.2 14.34 48.2 15L48.2 35C48.2 35.66 47.66 36.2 47 36.2L15 36.2C14.34 36.2 13.8 35.66 13.8 35L13.8 15C13.8 14.34 14.34 13.8 15 13.8ZM15 13C13.9 13 13 13.9 13 15L13 35C13 36.1 13.9 37 15 37L47 37C48.1 37 49 36.1 49 35L49 15C49 13.9 48.1 13 47 13L15 13ZM39.08 30.56L43.52 32.09C43.73 32.15 43.85 32.02 43.78 31.81L39.21 18.21C39.14 18 39.02 18 38.95 18.21L34.38 31.81C34.31 32.02 34.42 32.15 34.64 32.09L39.08 30.56ZM19.1 25.3L19.81 26.01 25.79 26.01 27 24.81 26.19 23.99 20.41 23.99 19.1 25.3ZM26.19 26.81L26.19 31.74 27.35 33.84C27.79 33.62 28.07 33.25 28.2 32.73L28.2 25.72 27.74 25.26 26.19 26.81ZM25.35 31.98L19.81 31.98 18.21 33.54C18.42 33.76 18.7 33.91 19.03 34L26.44 34 26.41 33.91 25.35 31.98ZM27.6 16L19.04 16C18.5 16.14 18.13 16.44 17.92 16.91L19.81 18.02 26.86 18.02 27.6 16ZM17.8 17.84L17.8 24.28 18.3 24.78 19.81 23.28 19.81 19.08 17.8 17.84ZM168.02 31.88L170.31 31.88 170.31 26.69 170.72 26.69C172.14 28.74 173.28 30.45 174.21 31.88L177 31.88 173.09 26.23C173.35 26.13 173.72 25.92 174.03 25.68 174.58 25.28 175.39 24.3 175.39 22.73 175.39 20.46 173.93 19.56 172.99 19.28 172.23 19.05 171.38 18.97 170.39 18.97 170.02 18.97 169.36 18.99 169.01 19.01 168.64 19.02 168.26 19.04 168.02 19.07L168.02 31.88ZM173.03 22.92C173.03 23.87 172.5 24.41 172.02 24.66 171.7 24.86 171.24 24.98 170.77 24.98 170.6 24.98 170.43 24.98 170.31 24.96L170.31 21.05C170.46 21.04 170.67 21.02 170.95 21.02 172.19 21.02 173.03 21.7 173.03 22.91L173.03 22.92ZM163.16 29.33C163.81 30.99 164.14 31.88 164.14 31.88L166.86 31.88 161.37 18.8 161.02 18.8 155.4 31.88 157.92 31.88C157.92 31.88 158.27 30.99 158.94 29.33L163.16 29.33ZM159.7 27.36L161.09 23.67C161.24 24.19 162.42 27.36 162.42 27.36L159.7 27.36ZM155.55 25.22C155.55 23.25 154.81 21.19 152.95 20.01 151.86 19.34 150.41 18.96 148.58 18.96 148 18.96 147.43 18.98 146.76 19 146.11 19.03 145.71 19.08 145.4 19.1L145.4 31.86C145.72 31.87 146.16 31.91 146.52 31.92 146.99 31.94 147.72 31.96 148.43 31.96 150.18 31.96 151.73 31.57 152.89 30.72 154.57 29.53 155.55 27.67 155.55 25.24L155.55 25.22ZM153.02 25.3C153.02 26.98 152.36 28.15 151.42 28.9 150.71 29.45 149.77 29.74 148.8 29.74 148.5 29.74 147.87 29.69 147.87 29.69 147.87 29.69 147.84 29.69 147.84 29.66L147.84 21.23C148.09 21.19 148.48 21.18 148.83 21.18 149.92 21.18 150.87 21.48 151.52 21.97 152.49 22.72 153.02 23.93 153.02 25.29L153.02 25.3ZM143 19.05L140.72 19.05 140.71 27.01C140.71 27.01 135.69 21.87 132.67 18.88L132.36 18.88 132.36 31.88 134.64 31.88 134.64 23.96C134.64 23.96 139.78 29.19 142.69 32.05L143 32.05 143 19.05ZM127.32 29.33C127.98 30.99 128.31 31.88 128.31 31.88L131.03 31.88 131.03 31.83C131 31.72 125.54 18.8 125.54 18.8L125.19 18.8C125.19 18.8 119.62 31.73 119.57 31.83L119.57 31.88 122.09 31.88C122.09 31.88 122.44 30.99 123.11 29.33L127.32 29.33ZM123.86 27.36L125.26 23.67 126.59 27.36 123.86 27.36ZM119.31 25.39C119.31 21.74 116.68 18.9 113.07 18.9 109.23 18.9 106.44 21.77 106.44 25.56 106.44 29.09 109.2 32.03 112.78 32.03 116.65 32.03 119.31 29.01 119.31 25.41L119.31 25.39ZM118.33 25.47C118.33 28.65 116.02 31.22 112.88 31.22 109.8 31.22 107.42 28.57 107.42 25.47 107.42 22.26 109.78 19.71 112.83 19.71 115.97 19.71 118.33 22.21 118.33 25.46L118.33 25.47ZM101.85 31.88L102.74 31.88 102.74 19.88 106.76 19.88 106.76 19.06 97.85 19.06 97.85 19.88 101.85 19.88 101.85 31.88ZM96.35 19.05L95.54 19.05 95.54 29.66 95.51 29.66C94.91 28.82 90.67 23.45 87.09 18.88L87.01 18.88 87.01 31.88 87.82 31.88 87.82 21.28 87.84 21.28C88.54 22.3 96.27 32.05 96.27 32.05L96.35 32.05 96.35 19.05ZM84.46 19.05L83.57 19.05 83.57 31.88 84.46 31.88 84.46 19.05ZM71.68 26.61C71.68 28.47 71.95 29.47 72.57 30.38 73.37 31.51 74.65 32.03 76.12 32.03 77.62 32.03 78.92 31.55 79.73 30.58 80.57 29.59 80.93 28.25 80.93 26.43L80.93 19.05 80.04 19.05 80.04 26.33C80.04 27.96 79.77 29.13 79.18 29.92 78.46 30.87 77.41 31.22 76.17 31.22 75.06 31.22 73.86 30.69 73.26 29.75 72.77 28.98 72.57 27.96 72.57 26.52L72.57 19.05 71.68 19.05 71.68 26.61ZM69.86 25.39C69.86 21.74 67.22 18.9 63.62 18.9 59.79 18.9 57 21.82 57 25.56 57 29.09 59.69 32.03 63.34 32.03 63.7 32.03 64.05 32 64.35 31.97 64.65 31.99 64.91 31.94 65.06 31.89 65.55 32.17 66.3 32.61 66.91 32.89 67.7 33.25 68.23 33.47 68.66 33.6L68.69 33.6C68.92 33.37 69.14 33.14 69.36 32.91L69.34 32.88C69.2 32.83 68.97 32.78 68.79 32.69 68.39 32.56 67.96 32.41 67.5 32.22 67.01 32 66.45 31.76 66.05 31.51L66.05 31.48C66.84 31.13 67.52 30.62 67.9 30.26 69.03 29.13 69.86 27.35 69.86 25.41L69.86 25.39ZM68.89 25.47C68.89 28.62 66.63 31.22 63.42 31.22 60.29 31.22 57.97 28.52 57.97 25.47 57.97 22.33 60.3 19.71 63.37 19.71 66.58 19.71 68.89 22.21 68.89 25.46L68.89 25.47Z" fill="#ffffff"/></svg>
