<svg id="Layer_1" viewBox="0 0 176 176" xmlns="http://www.w3.org/2000/svg" xmlns:xlink="http://www.w3.org/1999/xlink"><style>.st0{fill:#B2D9F8;} .st1{fill:#4696E6;} .st3{opacity:0.5;clip-path:url(#SVGID_2_);fill:rgba(255,255,255,0.7);} .st5{fill:#FFFFFF;} .st6{fill:#50A0F0;}</style><path class="st0" d="M127.5 22.5h-78c-2.3 0-4.2 1.9-4.2 4.2v121.6c0 2.3 1.9 4.2 4.2 4.2h78c2.3 0 4.2-1.9 4.2-4.2V26.7c0-2.3-1.9-4.2-4.2-4.2zm-23.3 13.6H72.8v-5.7h31.4v5.7z"></path><path class="st1" d="M62.5 128.5c-.5 0-.9.3-1.1.8l-1.2 3.8h-4c-.5 0-.9.3-1.1.8-.2.5 0 1 .4 1.2l3.2 2.3-1.2 3.8c-.2.5 0 1 .4 1.2.2.1.4.2.7.2.2 0 .5-.1.7-.2l3.2-2.3 3.2 2.3c.2.1.4.2.7.2.2 0 .5-.1.7-.2.4-.3.6-.8.4-1.2l-1.2-3.8 3.2-2.3c.4-.3.6-.8.4-1.2-.2-.5-.6-.8-1.1-.8h-4l-1.2-3.8c-.2-.5-.6-.8-1.1-.8zM80.4 128.5c-.5 0-.9.3-1.1.8l-1.2 3.8h-4c-.5 0-.9.3-1.1.8-.2.5 0 1 .4 1.2l3.2 2.3-1.2 3.8c-.2.5 0 1 .4 1.2.2.1.4.2.7.2.2 0 .5-.1.7-.2l3.2-2.3 3.2 2.3c.2.1.4.2.7.2.2 0 .5-.1.7-.2.4-.3.6-.8.4-1.2l-1.2-3.8 3.2-2.3c.4-.3.6-.8.4-1.2-.2-.5-.6-.8-1.1-.8h-4l-1.2-3.8c-.2-.5-.6-.8-1.1-.8zM98 128.5c-.5 0-.9.3-1.1.8l-1.2 3.8h-4c-.5 0-.9.3-1.1.8-.2.5 0 1 .4 1.2l3.2 2.3-1.2 3.8c-.2.5 0 1 .4 1.2.2.1.4.2.7.2.2 0 .5-.1.7-.2l3.2-2.3 3.2 2.3c.2.1.4.2.7.2.2 0 .5-.1.7-.2.4-.3.6-.8.4-1.2l-1.2-3.8 3.2-2.3c.4-.3.6-.8.4-1.2-.2-.5-.6-.8-1.1-.8h-4l-1.2-3.8c-.2-.5-.6-.8-1.1-.8zM115.9 128.5c-.5 0-.9.3-1.1.8l-1.2 3.8h-4c-.5 0-.9.3-1.1.8-.2.5 0 1 .4 1.2l3.2 2.3-1.2 3.8c-.2.5 0 1 .4 1.2.2.1.4.2.7.2.2 0 .5-.1.7-.2l3.2-2.3 3.2 2.3c.2.1.4.2.7.2.2 0 .5-.1.7-.2.4-.3.6-.8.4-1.2l-1.2-3.8 3.2-2.3c.4-.3.6-.8.4-1.2-.2-.5-.6-.8-1.1-.8h-4l-1.2-3.8c-.2-.5-.6-.8-1.1-.8z"></path><path class="st5" d="M54.6 103.3h69.2v3.9H54.6zM54.6 113h69.2v3.9H54.6z"></path><path class="st6" d="M70.3 51.3h36.4v43.5H70.3z"></path><circle class="st5" cx="88.5" cy="69.8" r="7.7"></circle><path class="st5" d="M88.5 81.3c-11.7 0-15.4 7.7-15.4 7.7v3.8h30.7V89c.1 0-3.6-7.7-15.3-7.7z"></path><path class="st1" d="M127.5 22.5h-78c-2.3 0-4.2 1.9-4.2 4.2v18.5h86.4V26.7c0-2.3-1.9-4.2-4.2-4.2zm-23.3 13.6H72.8v-5.7h31.4v5.7z"></path><defs><path d="M127.5 22.5h-78c-2.3 0-4.2 1.9-4.2 4.2v121.6c0 2.3 1.9 4.2 4.2 4.2h78c2.3 0 4.2-1.9 4.2-4.2V26.7c0-2.3-1.9-4.2-4.2-4.2zm-23.3 13.6H72.8v-5.7h31.4v5.7z" id="SVGID_3_"></path></defs><clipPath id="SVGID_2_"><use xlink:href="#SVGID_3_"></use></clipPath><path class="st3" d="M131.4 151.6L57.2 21.4h74.2z"></path></svg>
