<svg id="Layer_1" viewBox="0 0 176 176" xmlns="http://www.w3.org/2000/svg" xmlns:xlink="http://www.w3.org/1999/xlink"><style>.st0{fill:#B2D9F8;} .st1{fill:#4696E6;} .st2{fill:#64B4FF;} .st3-alt{opacity:0.5;clip-path:url(#SVGID_2_alt);fill:rgba(255,255,255,0.7);} .st4{fill:#4696E6;stroke:#FFFFFF;stroke-width:1.6883;stroke-miterlimit:10;} .st5{fill:#FFFFFF;}</style><path class="st0" d="M49.3 109.9h69.2V136H49.3z"></path><path class="st1" d="M65.3 46.1c-1.7-.1-3.1-1.5-3-3.1.1-1.8 1.5-3.1 3.2-3.1 1.7.1 3 1.4 3 3.2-.1 1.7-1.5 3-3.2 3z"></path><path class="st1" d="M61.1 48.5c.3.3.5.4.5.8v.5s-.3 4.7 0 6.1v.8c0 .3-.1.7-.1 1.1 2.6 0 5.3-.1 7.9.1-.2-.7-.3-1.5-.4-2.3 0 0 .3-1.4.1-3.7v-2.6c0-.2.2-.5.3-.7.9-.9 2-1.7 2.8-2.6 2-2.1 3.3-4.4 4-7.2.3-.7 0-1.3-.6-1.5-.6-.2-1.2.2-1.4 1-.2.5-.3 1.1-.5 1.6-1.1 2.8-3 5.1-5.5 6.8-.2.2-.5.3-.8.3-1.3 0-2.6.1-4 0-.3 0-.8-.2-1.1-.3-2.7-2.2-4.8-4.9-5.7-8.3-.2-.7-.6-1-1.2-1-.7.1-1.1.7-.9 1.6 1 3.9 3.3 7 6.6 9.5z"></path><path class="st2" d="M70.4 136v-21.2h27.7V136h32.2c0-.2.1-.3.1-.5V25.8c0-3-2.4-5.4-5.4-5.4H43.3c-3 0-5.4 2.4-5.4 5.4v38.4l.5 71.8h32zM89 33.9h26.9v22.8H89V33.9zm0 27h26.9v22.8h-27 .1V60.9zm-37.2-27h27.7v22.8H51.8V33.9zm0 27h27.7v22.8H51.8V60.9zM89 87.1h26.9v22.8h-27 .1V87.1zm-37.2 0h27.7v22.8H51.8V87.1z"></path><defs><path d="M70.4 136v-21.2h27.7V136h32.2c0-.2.1-.3.1-.5V25.8c0-3-2.4-5.4-5.4-5.4H43.3c-3 0-5.4 2.4-5.4 5.4v38.4l.5 71.8h32zM89 33.9h26.9v22.8H89V33.9zm0 27h26.9v22.8h-27 .1V60.9zm-37.2-27h27.7v22.8H51.8V33.9zm0 27h27.7v22.8H51.8V60.9zM89 87.1h26.9v22.8h-27 .1V87.1zm-37.2 0h27.7v22.8H51.8V87.1z" id="SVGID_1_"></path></defs><clipPath id="SVGID_2_alt"><use xlink:href="#SVGID_1_"></use></clipPath><path class="st3-alt" d="M130.5 131.7L67.1 20.4h63.4z"></path><path class="st4" d="M123.8 94.3c-1.1 0-2.2.1-3.3.2-1.4.2-2.3 1.3-2.3 2.6v2.8c0 .6-.5 1.2-1.1 1.3-1.8.6-3.5 1.3-5 2.1-.5.4-1.2.2-1.7-.2l-2-2c-.9-.8-2.3-.9-3.4-.1-1.8 1.4-3.3 2.9-4.7 4.7-.8 1.1-.8 2.5.1 3.4l2 2c.5.5.6 1.1.2 1.7-.9 1.6-1.6 3.3-2.1 5-.1.6-.7 1.1-1.3 1.1h-2.8c-1.4.1-2.5 1.1-2.6 2.3-.1 1.1-.2 2.1-.2 3.3 0 1.1.1 2.2.2 3.3.2 1.4 1.3 2.3 2.6 2.3h2.8c.6 0 1.2.5 1.3 1.1.6 1.8 1.3 3.5 2.1 5 .4.5.2 1.2-.2 1.6l-2 2c-.8.9-1 2.3-.1 3.4 1.4 1.8 2.9 3.3 4.7 4.7 1.1.8 2.5.8 3.4-.1l2-2c.5-.5 1.1-.6 1.7-.2 1.6.9 3.3 1.6 5 2.1.6.1 1.1.7 1.1 1.3v2.8c.1 1.4 1.1 2.4 2.3 2.5 1.1.1 2.1.3 3.3.3 1.1 0 2.2-.2 3.3-.3 1.4-.2 2.3-1.3 2.3-2.5V149c0-.6.5-1.2 1.1-1.3 1.8-.6 3.5-1.3 5-2.1.5-.4 1.2-.2 1.7.2l2 2c.9.8 2.3 1 3.4.1 1.8-1.4 3.3-2.9 4.7-4.7.8-1.1.8-2.5-.1-3.4l-2-2c-.5-.5-.6-1-.2-1.6.9-1.6 1.6-3.3 2.1-5 .1-.6.7-1.1 1.3-1.1h2.8c1.4-.1 2.5-1 2.6-2.3.1-1.1.2-2.1.2-3.3 0-1.1-.1-2.2-.2-3.3-.2-1.4-1.3-2.3-2.6-2.3h-2.8c-.6 0-1.1-.5-1.3-1.1-.6-1.8-1.3-3.5-2.1-5-.4-.5-.3-1.2.2-1.7l2-2c.8-.9.9-2.3.1-3.4-1.4-1.8-2.9-3.3-4.7-4.7-1.1-.8-2.5-.8-3.4.1l-2 2c-.5.5-1.1.6-1.7.2-1.6-.9-3.3-1.6-5-2.1-.6-.1-1.1-.7-1.1-1.3v-2.8c-.1-1.4-1.1-2.5-2.3-2.6-1-.1-2.1-.2-3.3-.2z"></path><path class="st5" d="M134.3 127.3c-.5-1.1-1.1-2-2-2.8-.8-.8-1.8-1.3-2.8-1.7-1-.4-2.3-.8-4-1.3v-8.8c1.7.6 2.7 1.8 3.2 3.5.4 1.5 1.3 2.2 2.7 2.2.7 0 1.4-.2 1.9-.7.5-.5.8-1.2.8-1.9 0-.6-.2-1.3-.5-2.1s-.8-1.5-1.5-2.2c-.8-1-1.8-1.7-2.9-2.1-1.1-.5-2.4-.8-3.7-.9v-2.8c0-.9-.7-1.6-1.6-1.6-.9 0-1.6.7-1.6 1.6v2.8c-2.5.3-4.9 1.1-6.5 2.7-1.6 1.6-2.3 3.5-2.3 6 0 1.9.4 3.4 1.2 4.6.8 1.2 1.8 2.1 3.1 2.8 1.2.6 2.7 1.2 4.5 1.7v10c-1.4-.5-2.7-1.5-3.3-2.8-.3-.6-.6-1.5-1-2.7-.5-1.2-1.4-1.7-2.5-1.7-1.6.1-2.8 1.2-2.8 2.7 0 .9.2 1.9.6 2.8.4 1 1 1.9 1.8 2.8.8.9 1.9 1.6 3.1 2.2 1.2.6 2.6.9 4 1.1v2.8c0 .9.7 1.6 1.6 1.6.9 0 1.6-.7 1.6-1.6v-2.8c1.8-.2 3.5-.7 5.1-1.6 1.5-.9 2.6-2.1 3.4-3.5.8-1.4 1.1-2.9 1.1-4.5 0-1.5-.2-2.7-.7-3.8zm-12-6.8c-1-.4-1.8-.8-2.5-1.4-.6-.6-1-1.4-1-2.5.1-2.2 1.5-3.5 3.5-4v7.9zm6.3 14.1c-1 .9-2 1.5-3.1 1.7v-9.2c1.2.4 2.3.9 3.2 1.6.8.7 1.2 1.7 1.2 2.9-.1 1.2-.5 2.2-1.3 3z"></path></svg>
